<svg width="30" height="22" viewBox="0 0 30 22" fill="none" xmlns="http://www.w3.org/2000/svg">
<g id="Arrow">
<path id="Vector" d="M21.7535 3.5019C21.5179 3.54362 21.3289 3.71541 21.2626 3.94364C21.1964 4.17432 21.2651 4.41973 21.4393 4.5817L27.2113 10.3537H8.65847C8.63884 10.3537 8.61921 10.3537 8.59957 10.3537C8.25355 10.3709 7.9836 10.6654 8.00078 11.0114C8.01796 11.3574 8.31245 11.6274 8.65847 11.6102H27.2113L21.4393 17.3822C21.2528 17.5343 21.1669 17.7773 21.2209 18.0129C21.2749 18.246 21.459 18.4301 21.6921 18.4841C21.9277 18.5381 22.1707 18.4522 22.3228 18.2657L29.1746 11.4335L29.6065 10.9819L29.1746 10.5304L22.3228 3.69823C22.1927 3.55835 22.0038 3.48718 21.8124 3.5019C21.7927 3.5019 21.7731 3.5019 21.7535 3.5019Z" fill="#040718"/>
</g>
</svg>
