<svg width="186" height="186" viewBox="0 0 186 186" fill="none" xmlns="http://www.w3.org/2000/svg">
<path d="M155 151.125H7.75V58.125C7.75 45.3375 18.2125 34.875 31 34.875H178.25V127.875C178.25 140.662 167.788 151.125 155 151.125Z" fill="url(#paint0_linear_3836_16284)"/>
<path d="M116.25 124H7.75V58.125C7.75 45.2833 18.1583 34.875 31 34.875H139.5V100.75C139.5 113.592 129.092 124 116.25 124Z" fill="url(#paint1_linear_3836_16284)"/>
<path d="M69.75 93H7.75V58.125C7.75 45.2833 18.1583 34.875 31 34.875H93V69.75C93 82.5918 82.5918 93 69.75 93Z" fill="url(#paint2_linear_3836_16284)"/>
<defs>
<linearGradient id="paint0_linear_3836_16284" x1="-54.6255" y1="187.564" x2="109.158" y2="-58.8723" gradientUnits="userSpaceOnUse">
<stop stop-color="#689B32" stop-opacity="0"/>
<stop offset="1" stop-color="#E6F3D4"/>
</linearGradient>
<linearGradient id="paint1_linear_3836_16284" x1="-40.4492" y1="151.937" x2="84.7328" y2="-37.9067" gradientUnits="userSpaceOnUse">
<stop stop-color="#689B32" stop-opacity="0"/>
<stop offset="1" stop-color="#E6F3D4"/>
</linearGradient>
<linearGradient id="paint2_linear_3836_16284" x1="-51.3607" y1="105.567" x2="159.531" y2="-83.5324" gradientUnits="userSpaceOnUse">
<stop stop-color="#689B32" stop-opacity="0"/>
<stop offset="0.5" stop-color="#689B32" stop-opacity="0.9"/>
</linearGradient>
</defs>
</svg>
