<svg width="186" height="186" viewBox="0 0 186 186" fill="none" xmlns="http://www.w3.org/2000/svg">
<path d="M96.875 50.375C95.5071 50.375 94.2168 50.654 93 51.088V31H72.912C73.346 29.7832 73.625 28.4929 73.625 27.125C73.625 20.7041 68.4209 15.5 62 15.5C55.5791 15.5 50.375 20.7041 50.375 27.125C50.375 28.4929 50.654 29.7832 51.088 31H31V51.088C32.2168 50.654 33.5071 50.375 34.875 50.375C41.2959 50.375 46.5 55.5791 46.5 62C46.5 68.4209 41.2959 73.625 34.875 73.625C33.5071 73.625 32.2168 73.346 31 72.912V93H51.088C50.654 91.7832 50.375 90.4929 50.375 89.125C50.375 82.7041 55.5791 77.5 62 77.5C68.4209 77.5 73.625 82.7041 73.625 89.125C73.625 90.4929 73.346 91.7832 72.912 93H93V72.912C94.2168 73.346 95.5071 73.625 96.875 73.625C103.296 73.625 108.5 68.4209 108.5 62C108.5 55.5791 103.296 50.375 96.875 50.375Z" fill="url(#paint0_linear_3836_16279)"/>
<path d="M89.1249 135.625C82.2003 135.625 76.6901 129.572 77.5968 122.465C78.0153 119.179 80.0729 116.262 82.8319 114.433C86.6643 111.891 90.0472 112.038 92.9961 113.088V92.9999H72.9081C73.9582 90.0511 74.1016 86.6643 71.5634 82.8358C69.7344 80.0768 66.8127 78.0192 63.5306 77.6007C56.4277 76.6901 50.3749 82.2003 50.3749 89.1249C50.3749 90.4928 50.6539 91.7832 51.0879 92.9999H30.9999V113.088C28.0511 112.038 24.6643 111.894 20.8358 114.433C18.0768 116.262 16.0192 119.183 15.6007 122.465C14.6901 129.572 20.2003 135.625 27.1249 135.625C28.4928 135.625 29.7832 135.346 30.9999 134.912V143.375C30.9999 149.796 36.2041 155 42.6249 155H92.9999V134.912C91.7832 135.346 90.4928 135.625 89.1249 135.625Z" fill="url(#paint1_linear_3836_16279)"/>
<path d="M155 134.912C153.783 135.346 152.493 135.625 151.125 135.625C144.704 135.625 139.5 130.421 139.5 124C139.5 117.579 144.704 112.375 151.125 112.375C152.493 112.375 153.783 112.654 155 113.088V93H134.912C135.346 94.2168 135.625 95.5071 135.625 96.875C135.625 103.296 130.421 108.5 124 108.5C117.579 108.5 112.375 103.296 112.375 96.875C112.375 95.5071 112.654 94.2168 113.088 93H93V113.088C91.7832 112.654 90.4929 112.375 89.125 112.375C82.7041 112.375 77.5 117.579 77.5 124C77.5 130.421 82.7041 135.625 89.125 135.625C90.4929 135.625 91.7832 135.346 93 134.912V155H113.088C112.654 156.217 112.375 157.507 112.375 158.875C112.375 165.296 117.579 170.5 124 170.5C130.421 170.5 135.625 165.296 135.625 158.875C135.625 157.507 135.346 156.217 134.912 155H155V134.912Z" fill="url(#paint2_linear_3836_16279)"/>
<path d="M165.164 52.4326C161.332 49.8906 157.949 50.0379 155 51.088V42.625C155 36.2041 149.796 31 143.375 31H93V51.088C95.9489 50.0379 99.3356 49.8945 103.164 52.4326C105.923 54.2616 107.981 57.1834 108.399 60.4655C109.31 67.5723 103.8 73.625 96.875 73.625C95.5071 73.625 94.2168 73.346 93 72.912V93H113.088C112.038 95.9489 111.895 99.3356 114.433 103.164C116.262 105.923 119.183 107.981 122.466 108.399C129.572 109.31 135.625 103.8 135.625 96.875C135.625 95.5071 135.346 94.2168 134.912 93H155V72.912C156.217 73.346 157.507 73.625 158.875 73.625C165.8 73.625 171.31 67.5723 170.403 60.4655C169.981 57.1834 167.927 54.2616 165.164 52.4326Z" fill="url(#paint3_linear_3836_16279)"/>
<defs>
<linearGradient id="paint0_linear_3836_16279" x1="-22.737" y1="109.756" x2="229.027" y2="-44.1632" gradientUnits="userSpaceOnUse">
<stop stop-color="#689B32" stop-opacity="0"/>
<stop offset="0.5" stop-color="#689B32" stop-opacity="0.9"/>
</linearGradient>
<linearGradient id="paint1_linear_3836_16279" x1="-12.8498" y1="179.292" x2="105.538" y2="57.8388" gradientUnits="userSpaceOnUse">
<stop stop-color="#689B32" stop-opacity="0"/>
<stop offset="1" stop-color="#E6F3D4"/>
</linearGradient>
<linearGradient id="paint2_linear_3836_16279" x1="23.763" y1="187.256" x2="275.527" y2="33.3368" gradientUnits="userSpaceOnUse">
<stop stop-color="#689B32" stop-opacity="0"/>
<stop offset="0.5" stop-color="#689B32" stop-opacity="0.9"/>
</linearGradient>
<linearGradient id="paint3_linear_3836_16279" x1="39.2623" y1="125.253" x2="291.024" y2="-28.6705" gradientUnits="userSpaceOnUse">
<stop stop-color="#689B32" stop-opacity="0"/>
<stop offset="0.5" stop-color="#689B32" stop-opacity="0.9"/>
</linearGradient>
</defs>
</svg>
