<svg width="186" height="186" viewBox="0 0 186 186" fill="none" xmlns="http://www.w3.org/2000/svg">
<path d="M156.872 70.1763L151.575 79.3522C149.703 82.5956 145.921 84.2193 142.279 83.3474L132.886 81.0921C130.584 82.8552 128.069 84.3471 125.353 85.4786L120.831 100.75H110.236C106.493 100.75 103.195 98.2855 102.13 94.6973L99.3979 85.4786C96.6854 84.351 94.1667 82.8552 91.8649 81.0921L76.3339 84.8199L71.0368 75.6439C69.1652 72.4005 69.6495 68.3124 72.2264 65.596L78.872 58.5939C78.6899 57.1679 78.562 55.7225 78.562 54.2461C78.562 52.7697 78.6899 51.3244 78.872 49.8984L67.8787 38.3238L73.1758 29.1477C75.0474 25.9044 78.8294 24.2808 82.4719 25.1526L91.8649 27.4079C94.1667 25.6448 96.6815 24.1529 99.3979 23.0252L103.92 7.75H114.514C118.258 7.75 121.555 10.2145 122.621 13.8028L125.353 23.0214C128.065 24.149 130.584 25.6448 132.886 27.404L148.417 23.6763L153.714 32.8522C155.585 36.0956 155.101 40.1838 152.524 42.9001L145.879 49.9023C146.061 51.3283 146.189 52.7736 146.189 54.25C146.189 55.7264 146.061 57.1717 145.879 58.5977L156.872 70.1763ZM112.375 38.75C103.815 38.75 96.8753 45.6901 96.8753 54.25C96.8753 62.8099 103.815 69.75 112.375 69.75C120.935 69.75 127.875 62.8099 127.875 54.25C127.875 45.6901 120.935 38.75 112.375 38.75Z" fill="url(#paint0_linear_3836_16261)"/>
<path d="M112.375 69.75C120.935 69.75 127.875 62.8104 127.875 54.25C127.875 45.6896 120.935 38.75 112.375 38.75C103.815 38.75 96.875 45.6896 96.875 54.25C96.875 62.8104 103.815 69.75 112.375 69.75Z" fill="url(#paint1_linear_3836_16261)"/>
<path d="M54.2496 108.5V131.75H108.5V162.75H42.2719C39.9547 162.75 37.6646 163.269 35.5759 164.273L23.1294 170.236L5.30444 125.221L28.1127 113.816C35.1071 110.321 42.8222 108.5 50.6419 108.5H54.2496Z" fill="url(#paint2_linear_3836_16261)"/>
<path d="M108.5 162.749V131.749L156.647 110.139C164.06 106.81 172.786 109.774 176.638 116.928L180.707 124.48L108.5 162.749Z" fill="url(#paint3_linear_3836_16261)"/>
<path d="M54.25 131.75V108.5H89.125C99.8239 108.5 108.5 117.176 108.5 127.875V131.75H54.25Z" fill="url(#paint4_linear_3836_16261)"/>
<defs>
<linearGradient id="paint0_linear_3836_16261" x1="35.3215" y1="129.901" x2="177.413" y2="-9.58889" gradientUnits="userSpaceOnUse">
<stop stop-color="#689B32" stop-opacity="0"/>
<stop offset="1" stop-color="#E6F3D4"/>
</linearGradient>
<linearGradient id="paint1_linear_3836_16261" x1="75.3802" y1="76.4522" x2="176.086" y2="14.8847" gradientUnits="userSpaceOnUse">
<stop stop-color="#689B32" stop-opacity="0"/>
<stop offset="0.5" stop-color="#689B32" stop-opacity="0.9"/>
</linearGradient>
<linearGradient id="paint2_linear_3836_16261" x1="-66.249" y1="183.584" x2="191.793" y2="-130.148" gradientUnits="userSpaceOnUse">
<stop stop-color="#689B32" stop-opacity="0"/>
<stop offset="0.5" stop-color="#689B32" stop-opacity="0.9"/>
</linearGradient>
<linearGradient id="paint3_linear_3836_16261" x1="58.4333" y1="174.418" x2="251.513" y2="16.4993" gradientUnits="userSpaceOnUse">
<stop stop-color="#689B32" stop-opacity="0"/>
<stop offset="0.5" stop-color="#689B32" stop-opacity="0.9"/>
</linearGradient>
<linearGradient id="paint4_linear_3836_16261" x1="16.6341" y1="136.777" x2="96.4068" y2="22.9801" gradientUnits="userSpaceOnUse">
<stop stop-color="#689B32" stop-opacity="0"/>
<stop offset="0.5" stop-color="#689B32" stop-opacity="0.9"/>
</linearGradient>
</defs>
</svg>
