<svg width="186" height="186" viewBox="0 0 186 186" fill="none" xmlns="http://www.w3.org/2000/svg">
<path d="M170.5 143.375C170.5 154.031 161.781 162.75 151.125 162.75H15.5V108.5C15.5 97.8011 24.1761 89.125 34.875 89.125H170.5V143.375Z" fill="url(#paint0_linear_3836_16267)"/>
<path d="M93 127.875H85.25V112.375C85.25 108.093 88.7181 104.625 93 104.625H100.75V120.125C100.75 124.407 97.2819 127.875 93 127.875Z" fill="url(#paint1_linear_3836_16267)"/>
<path d="M158.875 38.75V89.125H139.5V69.75H116.25V50.375H81.375C74.9541 50.375 69.75 55.5791 69.75 62V69.75H58.125C51.7041 69.75 46.5 74.9541 46.5 81.375V89.125H34.875C32.1238 89.125 29.4887 89.7063 27.125 90.7138V38.75C27.125 38.75 41.3463 19.375 93 19.375C144.654 19.375 158.875 38.75 158.875 38.75Z" fill="url(#paint2_linear_3836_16267)"/>
<path d="M116.25 50.375V69.75H69.75V62C69.75 55.5791 74.9541 50.375 81.375 50.375H116.25Z" fill="url(#paint3_linear_3836_16267)"/>
<path d="M139.5 69.75H93V89.125H139.5V69.75Z" fill="url(#paint4_linear_3836_16267)"/>
<path d="M93 69.75V89.125H46.5V81.375C46.5 74.9541 51.7041 69.75 58.125 69.75H93Z" fill="url(#paint5_linear_3836_16267)"/>
<defs>
<linearGradient id="paint0_linear_3836_16267" x1="-91.9739" y1="178.668" x2="168.41" y2="-156.466" gradientUnits="userSpaceOnUse">
<stop stop-color="#689B32" stop-opacity="0"/>
<stop offset="0.5" stop-color="#689B32" stop-opacity="0.9"/>
</linearGradient>
<linearGradient id="paint1_linear_3836_16267" x1="74.5026" y1="132.902" x2="133.821" y2="108.725" gradientUnits="userSpaceOnUse">
<stop stop-color="#689B32" stop-opacity="0"/>
<stop offset="0.5" stop-color="#689B32" stop-opacity="0.9"/>
</linearGradient>
<linearGradient id="paint2_linear_3836_16267" x1="-21.0742" y1="113.075" x2="68.9293" y2="-57.4494" gradientUnits="userSpaceOnUse">
<stop stop-color="#689B32" stop-opacity="0"/>
<stop offset="1" stop-color="#E6F3D4"/>
</linearGradient>
<linearGradient id="paint3_linear_3836_16267" x1="37.5078" y1="73.9389" x2="103.327" y2="-22.6349" gradientUnits="userSpaceOnUse">
<stop stop-color="#689B32" stop-opacity="0"/>
<stop offset="0.5" stop-color="#689B32" stop-opacity="0.9"/>
</linearGradient>
<linearGradient id="paint4_linear_3836_16267" x1="60.7578" y1="93.3139" x2="126.577" y2="-3.25985" gradientUnits="userSpaceOnUse">
<stop stop-color="#689B32" stop-opacity="0"/>
<stop offset="0.5" stop-color="#689B32" stop-opacity="0.9"/>
</linearGradient>
<linearGradient id="paint5_linear_3836_16267" x1="14.2578" y1="93.3139" x2="80.0766" y2="-3.25985" gradientUnits="userSpaceOnUse">
<stop stop-color="#689B32" stop-opacity="0"/>
<stop offset="0.5" stop-color="#689B32" stop-opacity="0.9"/>
</linearGradient>
</defs>
</svg>
